<svg width="24" height="24" viewBox="0 0 24 24" fill="none" xmlns="http://www.w3.org/2000/svg">
<path fill-rule="evenodd" clip-rule="evenodd" d="M12 24C18.6274 24 24 18.6274 24 12C24 5.37258 18.6274 0 12 0C5.37258 0 0 5.37258 0 12C0 18.6274 5.37258 24 12 24Z" fill="#0976B4"/>
<path fill-rule="evenodd" clip-rule="evenodd" d="M7.32528 8.90287C8.15141 8.90287 8.82115 8.29211 8.82115 7.53786C8.82115 6.78295 8.15141 6.17139 7.32528 6.17139C6.49835 6.17139 5.82861 6.78295 5.82861 7.53786C5.82861 8.29211 6.49835 8.90287 7.32528 8.90287Z" fill="white"/>
<path fill-rule="evenodd" clip-rule="evenodd" d="M6.17139 17.6838H8.85539V9.94287H6.17139V17.6838Z" fill="white"/>
<path fill-rule="evenodd" clip-rule="evenodd" d="M12.6225 13.3785C12.6225 12.4908 13.0425 11.6227 14.0467 11.6227C15.051 11.6227 15.2979 12.4908 15.2979 13.3573V17.585H17.9699V13.1845C17.9699 10.1272 16.1627 9.6001 15.051 9.6001C13.9402 9.6001 13.3275 9.97582 12.6225 10.8862V9.84408H9.94287V17.585H12.6225V13.3785Z" fill="white"/>
</svg>
