<svg width="32" height="34" viewBox="0 0 32 34" fill="none" xmlns="http://www.w3.org/2000/svg">
<path fill-rule="evenodd" clip-rule="evenodd" d="M30.2174 22.5652C30.5304 15.2539 25.4522 14.913 24.3043 14.913H18.3913C16.4991 14.9478 15.6922 13.6052 16.5617 11.8661L17.7304 9.77913C19.4835 6.70435 19.1496 2.86435 15.247 1L5.86957 14.913H1L2.78087 25.7652C3.29113 29.8568 6.74146 32.9449 10.8643 33H23.4209C24.5061 33 29.9322 28.9235 30.2174 22.5652Z" fill="white"/>
<path fill-rule="evenodd" clip-rule="evenodd" d="M5.337 13.913L14.4177 0.441098C14.6947 0.0301614 15.2309 -0.115939 15.678 0.0976763C19.8495 2.09045 20.8106 6.39557 18.6029 10.2677L17.4562 12.3133C16.9175 13.3906 17.2439 13.934 18.3913 13.913L24.3707 13.9134C25.7508 13.9267 27.1911 14.2817 28.4737 15.2454C30.3608 16.6635 31.3671 19.0897 31.2164 22.61C30.9651 28.2122 26.0902 34 23.4209 34L10.851 33.9999C6.22878 33.9381 2.36061 30.476 1.79406 25.9272L0.0131955 15.075C-0.0867079 14.4662 0.383068 13.913 0.999997 13.913L5.337 13.913ZM15.6401 2.37094L15.562 2.32L6.69879 15.4719C6.51293 15.7477 6.20212 15.913 5.86956 15.913L2.177 15.913L3.77318 25.6415C4.21145 29.1558 7.11762 31.8278 10.6191 31.9926L10.8643 32H23.4209C23.6867 32 25.1735 30.9247 26.3543 29.5227C28.0353 27.527 29.1017 25.1211 29.2183 22.5224C29.3421 19.63 28.6009 17.8427 27.2722 16.8444C26.3887 16.1804 25.3436 15.9229 24.3609 15.9133L18.2223 15.9127C15.6939 15.8595 14.4962 13.7612 15.6892 11.3775L16.8617 9.28384C18.3694 6.6393 17.972 3.94213 15.6401 2.37094Z" fill="#3B3A40"/>
</svg>
